<svg width="756" height="756" xmlns="http://www.w3.org/2000/svg" xmlns:xlink="http://www.w3.org/1999/xlink" overflow="hidden"><defs><clipPath id="clip0"><rect x="0" y="0" width="756" height="756"/></clipPath></defs><g clip-path="url(#clip0)"><rect x="0" y="0" width="756" height="756" fill="#FFFFFF"/><path d="M282.5 735.5C282.5 725.007 291.007 716.5 301.5 716.5 311.993 716.5 320.5 725.007 320.5 735.5 320.5 745.993 311.993 754.5 301.5 754.5 291.007 754.5 282.5 745.993 282.5 735.5Z" stroke="#A5A5A5" stroke-width="1.33363" stroke-miterlimit="8" fill="#7D55F9" fill-rule="evenodd"/><path d="M436.5 735.5C436.5 725.007 445.007 716.5 455.5 716.5 465.993 716.5 474.5 725.007 474.5 735.5 474.5 745.993 465.993 754.5 455.5 754.5 445.007 754.5 436.5 745.993 436.5 735.5Z" stroke="#A5A5A5" stroke-width="1.33363" stroke-miterlimit="8" fill="#7D55F9" fill-rule="evenodd"/><path d="M282.5 565.5C282.5 555.007 291.007 546.5 301.5 546.5 311.993 546.5 320.5 555.007 320.5 565.5 320.5 575.993 311.993 584.5 301.5 584.5 291.007 584.5 282.5 575.993 282.5 565.5Z" stroke="#A5A5A5" stroke-width="1.33363" stroke-miterlimit="8" fill="#7D55F9" fill-rule="evenodd"/><path d="M436.5 565.5C436.5 555.007 445.007 546.5 455.5 546.5 465.993 546.5 474.5 555.007 474.5 565.5 474.5 575.993 465.993 584.5 455.5 584.5 445.007 584.5 436.5 575.993 436.5 565.5Z" stroke="#A5A5A5" stroke-width="1.33363" stroke-miterlimit="8" fill="#7D55F9" fill-rule="evenodd"/><path d="M283.5 380.5C283.5 370.007 292.007 361.5 302.5 361.5 312.993 361.5 321.5 370.007 321.5 380.5 321.5 390.993 312.993 399.5 302.5 399.5 292.007 399.5 283.5 390.993 283.5 380.5Z" stroke="#A5A5A5" stroke-width="1.33363" stroke-miterlimit="8" fill="#7D55F9" fill-rule="evenodd"/><path d="M435.5 378.5C435.5 368.007 444.007 359.5 454.5 359.5 464.993 359.5 473.5 368.007 473.5 378.5 473.5 388.993 464.993 397.5 454.5 397.5 444.007 397.5 435.5 388.993 435.5 378.5Z" stroke="#A5A5A5" stroke-width="1.33363" stroke-miterlimit="8" fill="#7D55F9" fill-rule="evenodd"/><path d="M57.5 378.5C57.5 368.007 66.0066 359.5 76.5 359.5 86.9934 359.5 95.5 368.007 95.5 378.5 95.5 388.993 86.9934 397.5 76.5 397.5 66.0066 397.5 57.5 388.993 57.5 378.5Z" stroke="#A5A5A5" stroke-width="1.33363" stroke-miterlimit="8" fill="#7D55F9" fill-rule="evenodd"/><path d="M661.5 378.5C661.5 368.007 670.007 359.5 680.5 359.5 690.993 359.5 699.5 368.007 699.5 378.5 699.5 388.993 690.993 397.5 680.5 397.5 670.007 397.5 661.5 388.993 661.5 378.5Z" stroke="#A5A5A5" stroke-width="1.33363" stroke-miterlimit="8" fill="#7D55F9" fill-rule="evenodd"/><path d="M320.5 735.5 436.473 735.5" stroke="#A5A5A5" stroke-width="3.33407" stroke-miterlimit="8" stroke-dasharray="26.6725 10.0022" fill="none" fill-rule="evenodd"/><path d="M94.5 380.5 283.728 380.5" stroke="#A5A5A5" stroke-width="3.33407" stroke-miterlimit="8" stroke-dasharray="26.6725 10.0022" fill="none" fill-rule="evenodd"/><path d="M474.5 376.5 661.727 378.237" stroke="#A5A5A5" stroke-width="3.33407" stroke-miterlimit="8" stroke-dasharray="26.6725 10.0022" fill="none" fill-rule="evenodd"/><path d="M301.963 716.719 301.5 584.5" stroke="#A5A5A5" stroke-width="3.33407" stroke-miterlimit="8" stroke-dasharray="26.6725 10.0022" fill="none" fill-rule="evenodd"/><path d="M0 0 0.849216 133.93" stroke="#A5A5A5" stroke-width="3.33407" stroke-miterlimit="8" stroke-dasharray="26.6725 10.0022" fill="none" fill-rule="evenodd" transform="matrix(1 0 0 -1 454.5 718.43)"/><path d="M0 0 1.28039 147.359" stroke="#A5A5A5" stroke-width="3.33407" stroke-miterlimit="8" stroke-dasharray="26.6725 10.0022" fill="none" fill-rule="evenodd" transform="matrix(1 0 0 -1 301.5 546.859)"/><path d="M455.317 546.436 454.5 397.5" stroke="#A5A5A5" stroke-width="3.33407" stroke-miterlimit="8" stroke-dasharray="26.6725 10.0022" fill="none" fill-rule="evenodd"/><path d="M75.5 357.5C77.5691 272.172 79.6382 186.843 130.124 130.51 180.609 74.1767 295.926 19.3622 378.414 19.5003 460.901 19.6384 574.701 75.0051 625.049 131.338 675.396 187.672 677.948 272.586 680.5 357.5" stroke="#A5A5A5" stroke-width="2.66725" stroke-miterlimit="8" stroke-dasharray="21.338 8.00176" fill="none" fill-rule="evenodd"/><path d="M113.5 132.5C113.5 122.007 122.007 113.5 132.5 113.5 142.993 113.5 151.5 122.007 151.5 132.5 151.5 142.993 142.993 151.5 132.5 151.5 122.007 151.5 113.5 142.993 113.5 132.5Z" stroke="#A5A5A5" stroke-width="1.33363" stroke-miterlimit="8" fill="#7D55F9" fill-rule="evenodd"/><path d="M359.5 19.5C359.5 9.00656 368.007 0.499953 378.5 0.499953 388.993 0.499953 397.5 9.00656 397.5 19.5 397.5 29.9934 388.993 38.5 378.5 38.5 368.007 38.5 359.5 29.9934 359.5 19.5Z" stroke="#A5A5A5" stroke-width="1.33363" stroke-miterlimit="8" fill="#7D55F9" fill-rule="evenodd"/><path d="M605.5 132.5C605.5 122.007 614.007 113.5 624.5 113.5 634.993 113.5 643.5 122.007 643.5 132.5 643.5 142.993 634.993 151.5 624.5 151.5 614.007 151.5 605.5 142.993 605.5 132.5Z" stroke="#A5A5A5" stroke-width="1.33363" stroke-miterlimit="8" fill="#7D55F9" fill-rule="evenodd"/></g></svg>